<svg xmlns="http://www.w3.org/2000/svg" viewBox="0 0 64 64">
<defs><linearGradient id="g" x1="0" y1="0" x2="1" y2="1"><stop offset="0" stop-color="#0061FF"/><stop offset="1" stop-color="#00C6A7"/></linearGradient></defs>
<rect rx="14" ry="14" width="64" height="64" fill="url(#g)"/>
<path d="M14 34c2 7 8 12 18 12 9 0 15-4 18-12-2-7-8-12-18-12-10 0-16 5-18 12z" fill="#fff" opacity=".9"/>
<path d="M32 18c1 0 2 1 2 2v8h6a2 2 0 110 4h-6v10a2 2 0 11-4 0V32h-6a2 2 0 110-4h6v-8c0-1 1-2 2-2z" fill="#0A1E3F"/>
</svg>